HIERARCHY
ROOT Hips
{
	OFFSET 0.000000 0.000000 0.000000
	CHANNELS 6 Xposition Yposition Zposition Zrotation Yrotation Xrotation 
	JOINT LowerBack
	{
		OFFSET 0.000000 0.000000 0.000000
		CHANNELS 3 Zrotation Yrotation Xrotation
		JOINT Spine
		{
			OFFSET 0.028270 2.035590 -0.193380
			CHANNELS 3 Zrotation Yrotation Xrotation
			JOINT Spine1
			{
				OFFSET 0.056720 2.048850 -0.042750
				CHANNELS 3 Zrotation Yrotation Xrotation
				JOINT Neck
				{
					OFFSET 0.000000 0.000000 0.000000
					CHANNELS 3 Zrotation Yrotation Xrotation
					JOINT Neck1
					{
						OFFSET -0.054170 1.746240 0.172020
						CHANNELS 3 Zrotation Yrotation Xrotation
						JOINT Head
						{
							OFFSET 0.104070 1.761360 -0.123970
							CHANNELS 3 Zrotation Yrotation Xrotation
							End Site
							{
								OFFSET 0.000000 0.000000 0.000000
							}
						}
					}
				}
				JOINT LeftShoulder
				{
					OFFSET 0.000000 0.000000 0.000000
					CHANNELS 3 Zrotation Yrotation Xrotation
					JOINT LeftArm
					{
						OFFSET 3.362410 1.200890 -0.311210
						CHANNELS 3 Zrotation Yrotation Xrotation
						JOINT LeftForeArm
						{
							OFFSET 4.983000 -0.000000 -0.000000
							CHANNELS 3 Zrotation Yrotation Xrotation
							JOINT LeftHand
							{
								OFFSET 3.483560 -0.000000 -0.000000
								CHANNELS 3 Zrotation Yrotation Xrotation
								JOINT LeftFingerBase
								{
									OFFSET 0.000000 0.000000 0.000000
									CHANNELS 3 Zrotation Yrotation Xrotation
									JOINT LeftHandIndex1
									{
										OFFSET 0.715260 -0.000000 -0.000000
										CHANNELS 3 Zrotation Yrotation Xrotation
										End Site
										{
											OFFSET 0.000000 0.000000 0.000000
										}
									}
								}
								JOINT LThumb
								{
									OFFSET 0.000000 0.000000 0.000000
									CHANNELS 3 Zrotation Yrotation Xrotation
									End Site
									{
										OFFSET 0.000000 0.000000 0.000000
									}
								}
							}
						}
					}
				}
				JOINT RightShoulder
				{
					OFFSET 0.000000 0.000000 0.000000
					CHANNELS 3 Zrotation Yrotation Xrotation
					JOINT RightArm
					{
						OFFSET -3.136600 1.374050 -0.404650
						CHANNELS 3 Zrotation Yrotation Xrotation
						JOINT RightForeArm
						{
							OFFSET -5.241900 -0.000000 -0.000000
							CHANNELS 3 Zrotation Yrotation Xrotation
							JOINT RightHand
							{
								OFFSET -3.444170 -0.000000 -0.000000
								CHANNELS 3 Zrotation Yrotation Xrotation
								JOINT RightFingerBase
								{
									OFFSET 0.000000 0.000000 0.000000
									CHANNELS 3 Zrotation Yrotation Xrotation
									JOINT RightHandIndex1
									{
										OFFSET -0.622530 -0.000000 -0.000000
										CHANNELS 3 Zrotation Yrotation Xrotation
										End Site
										{
											OFFSET 0.000000 0.000000 0.000000
										}
									}
								}
								JOINT RThumb
								{
									OFFSET 0.000000 0.000000 0.000000
									CHANNELS 3 Zrotation Yrotation Xrotation
									End Site
									{
										OFFSET 0.000000 0.000000 0.000000
									}
								}
							}
						}
					}
				}
			}
		}
	}
}
}
MOTION
Frames: 15
Frame Time: 0.008333
5.150036 16.162827 1.425052 9.999168 -82.725322 8.777142 2.772449 -2.047232 -5.753665 1.087804 -2.267312 -3.923911 -0.586791 -2.363015 -0.067051 -2.598866 -6.104916 -6.512099 0.585647 0.022932 0.357556 0.000000 0.000000 0.000000 21.791981 1.118850 2.350652 23.022144 -66.897877 -13.095130 -0.447236 -36.459691 0.061236 -27.268427 5.825922 -1.448027 0.653823 -0.014619 0.000000 0.000000 0.000000 0.000000 0.000000 0.000000 0.000000 -12.014420 -2.092034 0.173200 -4.220293 73.537072 5.962282 0.103884 36.402348 0.029569 18.008231 -9.726910 -1.585299 -0.326360 0.085854 0.000000 0.000000 0.000000 0.000000 0.000000 0.000000 0.000000 
4.869574 16.271798 1.411877 13.155605 -82.215710 5.508142 2.138402 -1.966402 -5.663583 0.952461 -2.129327 -3.910809 -0.569437 -2.231221 -0.119289 -2.847826 -6.102198 -6.416719 0.526162 0.016781 0.382903 0.000000 0.000000 0.000000 21.499246 1.075359 2.100387 21.940756 -67.654595 -12.852033 -0.368973 -38.147929 0.064144 -28.878902 7.717828 -2.046812 0.676773 -0.059195 0.000000 0.000000 0.000000 0.000000 0.000000 0.000000 0.000000 -11.965855 -1.967190 0.354194 -3.572532 72.394598 6.516624 0.087156 36.800767 0.030719 17.195818 -9.521345 -1.479511 -0.314314 0.074897 0.000000 0.000000 0.000000 0.000000 0.000000 0.000000 0.000000 
4.588422 16.387481 1.403983 15.612730 -81.804016 2.947797 1.603597 -1.867386 -5.543771 0.830480 -1.981930 -3.898615 -0.572112 -2.087316 -0.198081 -3.088808 -6.005321 -6.323937 0.447339 0.009327 0.406525 0.000000 0.000000 0.000000 21.109715 1.023738 1.850877 20.756663 -68.300334 -12.646857 -0.269773 -39.869940 0.069044 -29.733975 9.188953 -2.517107 0.686125 -0.086076 0.000000 0.000000 0.000000 0.000000 0.000000 0.000000 0.000000 -11.850526 -1.707052 0.546187 -3.058089 71.173760 6.607559 0.068491 37.286565 0.032338 16.480214 -9.139913 -1.358518 -0.304943 0.059435 0.000000 0.000000 0.000000 0.000000 0.000000 0.000000 0.000000 
4.306699 16.508702 1.401207 17.546764 -81.497765 0.915055 1.170827 -1.752107 -5.390418 0.722929 -1.827461 -3.885387 -0.594760 -1.933846 -0.297654 -3.313426 -5.829261 -6.238017 0.352492 0.000905 0.427139 0.000000 0.000000 0.000000 20.625458 0.993122 1.604786 19.526520 -68.855434 -12.529893 -0.151638 -41.624354 0.076240 -29.835116 10.170616 -2.796611 0.684715 -0.094518 -0.000000 0.000000 0.000000 0.000000 0.000000 0.000000 0.000000 -11.672565 -1.331901 0.749139 -2.692332 69.886387 6.227838 0.050602 37.868958 0.034490 15.925091 -8.601559 -1.232621 -0.299373 0.039892 0.000000 0.000000 0.000000 0.000000 0.000000 0.000000 0.000000 
4.024324 16.634044 1.402805 19.154674 -81.297303 -0.789291 0.822846 -1.623003 -5.199043 0.626928 -1.666936 -3.869388 -0.636297 -1.772192 -0.414157 -3.509707 -5.593579 -6.161203 0.246267 -0.008102 0.444150 0.000000 0.000000 0.000000 20.059375 1.004823 1.362310 18.286126 -69.342706 -12.541976 -0.018517 -43.406934 0.085403 -29.238868 10.641504 -2.862519 0.674900 -0.085020 0.000000 0.000000 0.000000 0.000000 0.000000 0.000000 0.000000 -11.438198 -0.867555 0.961122 -2.449045 68.547143 5.400928 0.035082 38.551001 0.037264 15.570445 -7.938933 -1.109317 -0.298310 0.016848 0.000000 0.000000 0.000000 0.000000 0.000000 0.000000 0.000000 
3.741308 16.761729 1.407657 20.610117 -81.194250 -2.336823 0.531947 -1.483023 -4.971034 0.537622 -1.501015 -3.850396 -0.694581 -1.603460 -0.545609 -3.663845 -5.319405 -6.094280 0.134120 -0.017295 0.457546 0.000000 0.000000 0.000000 19.439494 1.074345 1.120295 17.024273 -69.786651 -12.702188 0.124474 -45.211110 0.095641 -28.057081 10.633698 -2.734632 0.658559 -0.059303 0.000000 0.000000 0.000000 0.000000 0.000000 0.000000 0.000000 -11.156066 -0.342278 1.178017 -2.268048 67.168948 4.168744 0.022135 39.332094 0.040759 15.431657 -7.198586 -0.993505 -0.301972 -0.008950 0.000000 0.000000 0.000000 0.000000 0.000000 0.000000 0.000000 
3.457578 16.889637 1.414531 22.052892 -81.172807 -3.857692 0.266285 -1.335532 -4.715317 0.449738 -1.330460 -3.829996 -0.765330 -1.428925 -0.691273 -3.763984 -5.024905 -6.037213 0.022592 -0.026220 0.467698 0.000000 0.000000 0.000000 18.801350 1.210593 0.875538 15.700752 -70.210159 -13.011859 0.271257 -47.026890 0.105777 -26.444293 10.225654 -2.465250 0.637379 -0.020194 0.000000 0.000000 0.000000 0.000000 0.000000 0.000000 0.000000 -10.842788 0.217819 1.393003 -2.068542 65.758928 2.574916 0.010499 40.212679 0.045085 15.500423 -6.443144 -0.889386 -0.310076 -0.036533 0.000000 0.000000 0.000000 0.000000 0.000000 0.000000 0.000000 
3.172962 17.015495 1.422153 23.584458 -81.212805 -5.438473 -0.004115 -1.183742 -4.445564 0.358543 -1.156089 -3.810758 -0.843202 -1.249911 -0.850463 -3.800425 -4.726734 -5.990203 -0.081847 -0.034430 0.474987 0.000000 0.000000 0.000000 18.178527 1.415977 0.627184 14.272623 -70.631980 -13.460592 0.415381 -48.842523 0.114667 -24.574243 9.526945 -2.119866 0.613133 0.028671 0.000000 0.000000 0.000000 0.000000 0.000000 0.000000 0.000000 -10.517205 0.788305 1.597619 -1.770645 64.323283 0.665711 -0.002452 41.188719 0.050317 15.737495 -5.725936 -0.798062 -0.321775 -0.065158 0.000000 0.000000 0.000000 0.000000 0.000000 0.000000 0.000000 
2.887108 17.136948 1.429691 25.220457 -81.289473 -7.073704 -0.297195 -1.032152 -4.183299 0.262160 -0.981051 -3.796805 -0.921850 -1.070032 -1.022135 -3.768218 -4.436339 -5.954698 -0.173358 -0.041503 0.479471 0.000000 0.000000 0.000000 17.602750 1.692855 0.376300 12.686809 -71.071360 -14.025801 0.551424 -50.639797 0.121558 -22.609472 8.670907 -1.760484 0.587645 0.083079 0.000000 0.000000 0.000000 0.000000 0.000000 0.000000 0.000000 -10.200948 1.350614 1.781724 -1.315984 62.866321 -1.517284 -0.020892 42.254607 0.056457 16.067859 -5.082393 -0.718232 -0.335590 -0.094490 0.000000 0.000000 0.000000 0.000000 0.000000 0.000000 0.000000 
2.600400 17.251884 1.436333 26.950688 -81.392066 -8.740708 -0.623399 -0.879436 -3.944042 0.160350 -0.803068 -3.792055 -0.992886 -0.887293 -1.209431 -3.673061 -4.151051 -5.929531 -0.244346 -0.046928 0.481866 0.000000 0.000000 0.000000 17.083145 2.028142 0.129496 10.933342 -71.536221 -14.713634 0.674962 -52.406944 0.126328 -20.702751 7.779828 -1.432498 0.563209 0.139078 0.000000 0.000000 0.000000 0.000000 0.000000 0.000000 0.000000 -9.940312 1.906235 1.931936 -0.568229 61.369614 -3.949124 -0.049854 43.426588 0.063709 16.462192 -4.612593 -0.662697 -0.350902 -0.123039 0.000000 0.000000 0.000000 0.000000 0.000000 0.000000 0.000000 
2.312361 17.358290 1.442080 28.648925 -81.498400 -10.293964 -0.974102 -0.731793 -3.751098 0.056671 -0.628981 -3.800959 -1.051638 -0.708809 -1.411285 -3.518464 -3.873722 -5.917688 -0.292892 -0.050525 0.481563 0.000000 0.000000 0.000000 16.629866 2.423748 -0.109673 8.980125 -72.044405 -15.488925 0.784907 -54.114745 0.129198 -18.922654 6.958347 -1.158308 0.540844 0.193540 0.000000 0.000000 0.000000 0.000000 0.000000 0.000000 0.000000 -9.748232 2.448399 2.039555 0.446695 59.843312 -6.595255 -0.095105 44.688426 0.071798 16.780666 -4.272131 -0.620259 -0.365323 -0.152080 0.000000 0.000000 0.000000 0.000000 0.000000 0.000000 0.000000 
2.023288 17.454671 1.446952 30.204747 -81.603611 -11.618729 -1.337567 -0.589883 -3.615359 -0.044953 -0.460025 -3.826595 -1.093184 -0.535931 -1.631570 -3.316861 -3.593792 -5.918300 -0.316487 -0.052128 0.478827 0.000000 0.000000 0.000000 16.229531 2.866899 -0.335123 6.841882 -72.602421 -16.350368 0.881588 -55.742073 0.130660 -17.310944 6.266290 -0.943011 0.521441 0.244628 0.000000 0.000000 0.000000 0.000000 0.000000 0.000000 0.000000 -9.654257 2.988236 2.095431 1.764139 58.279922 -9.437838 -0.161551 46.042196 0.080538 16.946059 -4.065035 -0.590619 -0.377688 -0.181946 0.000000 0.000000 0.000000 0.000000 0.000000 0.000000 0.000000 
1.733201 17.539757 1.451182 31.505541 -81.703788 -12.601742 -1.698282 -0.455648 -3.542784 -0.140358 -0.298972 -3.870963 -1.115488 -0.371510 -1.874015 -3.080470 -3.300452 -5.929990 -0.315890 -0.051799 0.473848 0.000000 0.000000 0.000000 15.861292 3.345142 -0.543177 4.541138 -73.216387 -17.292962 0.967052 -57.265474 0.131133 -15.861949 5.724199 -0.779708 0.505048 0.291739 0.000000 0.000000 0.000000 0.000000 0.000000 0.000000 0.000000 -9.670854 3.535468 2.094781 3.358313 56.684069 -12.459698 -0.252197 47.476947 0.089431 16.871285 -3.939782 -0.564378 -0.386750 -0.213876 0.000000 0.000000 0.000000 0.000000 0.000000 0.000000 0.000000 
1.442262 17.612607 1.455213 32.449265 -81.799899 -13.147148 -2.038159 -0.330494 -3.534357 -0.225481 -0.148279 -3.935078 -1.119238 -0.218035 -2.142628 -2.821495 -2.983376 -5.950160 -0.294514 -0.049813 0.467013 0.000000 0.000000 0.000000 15.500340 3.844431 -0.733081 2.099437 -73.890877 -18.309035 1.044321 -58.663365 0.130837 -14.545392 5.320820 -0.656596 0.491253 0.335198 0.000000 0.000000 0.000000 0.000000 0.000000 0.000000 0.000000 -9.796836 4.097423 2.036860 5.168004 55.071853 -15.648827 -0.367149 48.969150 0.097712 16.491730 -3.817269 -0.528437 -0.391647 -0.249361 0.000000 0.000000 0.000000 0.000000 0.000000 0.000000 0.000000 
1.150736 17.672484 1.459464 32.975230 -81.894374 -13.208090 -2.342989 -0.215650 -3.584623 -0.297692 -0.010039 -4.018384 -1.107433 -0.077605 -2.440478 -2.549349 -2.637515 -5.975341 -0.257999 -0.046621 0.458876 0.000000 0.000000 0.000000 15.123866 4.349896 -0.907712 -0.475497 -74.627815 -19.381459 1.116913 -59.918585 0.129756 -13.318700 5.023595 -0.561080 0.479396 0.375904 0.000000 0.000000 0.000000 0.000000 0.000000 0.000000 0.000000 -10.014605 4.673452 1.925573 7.098343 53.475474 -18.993427 -0.503139 50.478246 0.104311 15.768842 -3.600868 -0.468997 -0.391804 -0.289863 0.000000 0.000000 0.000000 0.000000 0.000000 0.000000 0.000000 
